<?xml version="1.0" encoding="UTF-8"?>
<svg fill="#8A5BF9" id="Capa_1" enable-background="new 0 0 512 512" height="512" viewBox="0 0 512 512" width="512" xmlns="http://www.w3.org/2000/svg"><g><path d="m165.039 392c-13.956 0-21.271 9.635-25.597 17.997-.03-.22-.06-.437-.089-.648-1.209-8.764-2.581-18.697-6.078-27.059-7.384-17.654-20.86-20.29-28.236-20.29-12.651 0-29.732 7.102-39.262 40.933-4.604 16.343-5.665 32.441-5.708 33.118l29.939 1.897c.009-.134.894-13.566 4.645-26.882 3.782-13.427 8.254-18.47 10.076-19.016 2.421 3.4 4.023 15.009 4.905 21.399.98 7.103 1.906 13.812 3.841 19.746 3.707 11.368 11.339 18.961 23.424 18.961 7.335 0 13.973-3.19 19.008-9.227 5.52-6.618 7.7-14.659 10.697-20.216 4.117 2.556 11.327 11.346 15.917 20.789l27.034-13.005c-3.091-6.428-19.771-38.497-44.516-38.497z"/><path d="m434.266 87.849c-13.012 9.293-27.288 20.613-42.227 33.425v-121.274h-293.261l-98.739 99.835v412.165h392v-267.439c2.588-2.538 5.177-5.098 7.765-7.686 34.563-34.563 64.888-69.403 85.386-98.101 16.444-23.02 37.279-55.004 20.681-71.604-16.79-16.791-48.876 4.444-71.605 20.679zm-141.219 203.553c-15.497 11.669-26.38 18.428-33.75 22.34 3.912-7.37 10.67-18.252 22.34-33.75 16.959-22.522 39.822-48.746 65.209-74.861l21.061 21.061c-26.114 25.387-52.338 48.25-74.86 65.21zm-203.008-239.904v39.502h-39.068zm272 430.502h-332v-361h90v-91h242v118.194c-8.575 8.024-17.234 16.4-25.875 25.042-34.563 34.563-64.888 69.403-85.386 98.101-10.176 14.246-27.317 39.459-26.864 56.576l-25.635 25.635 21.213 21.213 25.632-25.632c.254.007.508.014.761.014 16.999 0 41.826-16.887 55.818-26.881 18.189-12.992 38.847-29.935 60.336-49.399zm92.292-351.882c-16.959 22.522-39.823 48.746-65.21 74.861l-21.061-21.061c26.116-25.387 52.34-48.25 74.861-65.209 15.498-11.67 26.38-18.428 33.749-22.34-3.911 7.369-10.67 18.252-22.339 33.749z"/><path d="m60.039 151h152v30h-152z"/><path d="m60.039 211h90v30h-90z"/><path d="m60.039 271h90v30h-90z"/></g></svg>