<?xml version="1.0" encoding="UTF-8"?>
                    <svg viewBox="0 0 42 42" version="1.1" xmlns="http://www.w3.org/2000/svg"
                        xmlns:xlink="http://www.w3.org/1999/xlink">
                        <g id="Page-1" stroke="none" stroke-width="1" fill="none" fill-rule="evenodd">
                            <g id="Desktop-HD" transform="translate(-281.000000, -949.000000)">
                                <rect id="Background" fill="#F7FAFC" x="0" y="0" width="1440" height="5046"></rect>
                                <g id="Services" transform="translate(281.000000, 737.000000)" fill="#000000"
                                    fill-rule="nonzero">
                                    <g id="contract-(2)" transform="translate(0.000000, 212.000000)">
                                        <path
                                            d="M40.9164492,13.2174492 C39.4772109,11.7781289 37.1353008,11.7782109 35.6955703,13.2177773 C35.2527656,13.6609922 32.4255586,16.4904961 31.9936641,16.9228008 L31.9936641,7.17166406 C31.9936641,6.18564844 31.6096758,5.25869531 30.9124102,4.56151172 L27.4322344,1.08117187 C26.7350508,0.38390625 25.8080156,0 24.822,0 L3.69288281,0 C1.65744141,0 0.0014765625,1.65596484 0.0014765625,3.69140625 L0.0014765625,38.3085938 C0.0014765625,40.3440352 1.65744141,42 3.69288281,42 L28.3022578,42 C30.3376992,42 31.9936641,40.3440352 31.9936641,38.3085938 L31.9936641,27.368168 L40.9163672,18.437918 C42.3590508,16.9953164 42.3593789,14.6602148 40.9164492,13.2174492 Z M24.6109336,2.4609375 C24.8434102,2.4609375 25.2913828,2.42066016 25.6921055,2.82130078 L29.1723633,6.30164062 C29.562832,6.69219141 29.5328086,7.12014844 29.5328086,7.3828125 L24.6109336,7.3828125 L24.6109336,2.4609375 Z M29.5327266,38.3085938 C29.5327266,38.9870742 28.9808203,39.5390625 28.3022578,39.5390625 L3.69288281,39.5390625 C3.01440234,39.5390625 2.46241406,38.9870742 2.46241406,38.3085938 L2.46241406,3.69140625 C2.46241406,3.01292578 3.01440234,2.4609375 3.69288281,2.4609375 L22.1499141,2.4609375 L22.1499141,8.61328125 C22.1499141,9.29282812 22.7008359,9.84375 23.3803828,9.84375 L29.5327266,9.84375 L29.5327266,19.3858711 C29.5327266,19.3858711 25.9025156,23.0191992 25.9023516,23.0192812 L24.163043,24.7586719 C24.0280195,24.8936953 23.9261367,25.0584141 23.8657617,25.2396211 L22.1255508,30.4600898 C21.9781406,30.9022383 22.0932305,31.38975 22.422832,31.7192695 C22.7528438,32.0492812 23.2405195,32.1637969 23.6820117,32.0165508 L28.9024805,30.2764219 C29.0836875,30.2160469 29.2484062,30.1142461 29.3834297,29.9791406 L29.5327266,29.8298437 L29.5327266,38.3085938 Z M26.7731953,25.6287773 L28.5133242,27.3689062 L27.848625,28.0336055 L25.2384727,28.9036289 L26.1084961,26.2933945 L26.7731953,25.6287773 Z M30.253125,25.6283672 L28.5129961,23.8882383 C29.4396211,22.960875 33.5550469,18.8419219 34.4278594,17.9683711 L36.1679883,19.7085 L30.253125,25.6283672 Z M39.1759102,16.6981172 L37.9074609,17.9676328 L36.167332,16.2275039 L37.4361914,14.9575781 C37.9162383,14.4777773 38.6966836,14.4778594 39.1764023,14.9575781 C39.6560391,15.4374609 39.658582,16.2153633 39.1759102,16.6981172 Z"
                                            id="Shape"></path>
                                        <path
                                            d="M23.3803828,12.3046875 L6.15382031,12.3046875 C5.47427344,12.3046875 4.92335156,12.8556094 4.92335156,13.5351562 C4.92335156,14.2147031 5.47427344,14.765625 6.15382031,14.765625 L23.3803828,14.765625 C24.0599297,14.765625 24.6108516,14.2147031 24.6108516,13.5351562 C24.6108516,12.8556094 24.0599297,12.3046875 23.3803828,12.3046875 Z"
                                            id="Path"></path>
                                        <path
                                            d="M18.4585078,17.2265625 L6.15382031,17.2265625 C5.47427344,17.2265625 4.92335156,17.7774844 4.92335156,18.4570312 C4.92335156,19.1365781 5.47427344,19.6875 6.15382031,19.6875 L18.4585078,19.6875 C19.1380547,19.6875 19.6889766,19.1365781 19.6889766,18.4570312 C19.6889766,17.7774844 19.1380547,17.2265625 18.4585078,17.2265625 Z"
                                            id="Path"></path>
                                        <path
                                            d="M18.4585078,22.1484375 L6.15382031,22.1484375 C5.47427344,22.1484375 4.92335156,22.6993594 4.92335156,23.3789062 C4.92335156,24.0584531 5.47427344,24.609375 6.15382031,24.609375 L18.4585078,24.609375 C19.1380547,24.609375 19.6889766,24.0584531 19.6889766,23.3789062 C19.6889766,22.6993594 19.1380547,22.1484375 18.4585078,22.1484375 Z"
                                            id="Path"></path>
                                        <path
                                            d="M18.4585078,27.0703125 L6.15382031,27.0703125 C5.47427344,27.0703125 4.92335156,27.6212344 4.92335156,28.3007812 C4.92335156,28.9803281 5.47427344,29.53125 6.15382031,29.53125 L18.4585078,29.53125 C19.1380547,29.53125 19.6889766,28.9803281 19.6889766,28.3007812 C19.6889766,27.6212344 19.1380547,27.0703125 18.4585078,27.0703125 Z"
                                            id="Path"></path>
                                        <path
                                            d="M23.3803828,34.6171875 L15.9975703,34.6171875 C15.3180234,34.6171875 14.7671016,35.1681094 14.7671016,35.8476562 C14.7671016,36.5272031 15.3180234,37.078125 15.9975703,37.078125 L23.3803828,37.078125 C24.0599297,37.078125 24.6108516,36.5272031 24.6108516,35.8476562 C24.6108516,35.1681094 24.0599297,34.6171875 23.3803828,34.6171875 Z"
                                            id="Path"></path>
                                    </g>
                                </g>
                            </g>
                        </g>
                    </svg>