<svg fill="#8A5BF9" id="Layer_3" height="512" viewBox="0 0 32 32" width="512" xmlns="http://www.w3.org/2000/svg" data-name="Layer 3"><path d="m29.539 2.435a4.95 4.95 0 0 0 -3.529-1.465 4.956 4.956 0 0 0 -4.872 3.98h-6.457a1 1 0 0 0 -.708.294l-12.273 12.295a2.619 2.619 0 0 0 0 3.693l9.014 9.033a2.591 2.591 0 0 0 1.846.765 2.589 2.589 0 0 0 1.845-.765l12.269-12.3a1 1 0 0 0 .292-.706v-6.384a4.945 4.945 0 0 0 2.573-1.375 5.013 5.013 0 0 0 0-7.065zm-16.545 26.417a.608.608 0 0 1 -.86 0l-9.014-9.032a.618.618 0 0 1 0-.869l11.98-12.001h9.875v1.825a2.954 2.954 0 0 1 -1.077-.684 1 1 0 0 0 -1.42 1.409 4.938 4.938 0 0 0 2.493 1.352v5.998zm15.129-20.761a2.966 2.966 0 0 1 -1.152.707v-2.848a1 1 0 0 0 -1-1h-2.771a2.981 2.981 0 0 1 4.921-1.1 3.007 3.007 0 0 1 .002 4.241z"/><path d="m19.192 14.414.707-.707a1 1 0 0 0 -1.414-1.414l-.706.707a3 3 0 1 0 -4.243 4.243l1.414 1.413a1 1 0 1 1 -1.414 1.415l-2.828-2.828a1 1 0 0 0 -1.414 1.414l1.414 1.414-.708.707a1 1 0 1 0 1.414 1.414l.707-.706a3 3 0 0 0 4.244-4.243l-1.415-1.414a1 1 0 1 1 1.414-1.415l2.828 2.829a1 1 0 1 0 1.414-1.414z"/></svg>