<?xml version="1.0" encoding="UTF-8"?>
                    <svg viewBox="0 0 42 48" version="1.1" xmlns="http://www.w3.org/2000/svg"
                        xmlns:xlink="http://www.w3.org/1999/xlink">
                        <title>security</title>
                        <g id="Page-1" stroke="none" stroke-width="1" fill="none" fill-rule="evenodd">
                            <g id="Desktop-HD" transform="translate(-606.000000, -737.000000)">
                                <rect id="Background" fill="#F7FAFC" x="0" y="0" width="1440" height="5046"></rect>
                                <g id="Services" transform="translate(281.000000, 737.000000)" fill="#000000"
                                    fill-rule="nonzero">
                                    <g id="security" transform="translate(325.000000, 0.000000)">
                                        <path
                                            d="M21,0 L0,5.97161947 L0,18.3613407 C0,24.8591681 1.99946018,31.073031 5.78206195,36.3310221 C9.48382301,41.4766726 14.5855221,45.3080575 20.5354912,47.4111239 L21,47.5752212 L21.4645088,47.411031 C27.4144779,45.3079646 32.5162699,41.4765796 36.2179381,36.3309292 C40.0005398,31.0729381 42,24.8590752 42,18.3613407 L42,5.97161947 L21,0 Z M21,38.5566504 C17.664531,36.9375133 14.7595619,34.4897124 12.5706372,31.4471283 C10.3225221,28.322031 8.94042478,24.731031 8.50899558,20.9406239 L21,17.3888363 L33.4910044,20.9407168 C33.0596681,24.731031 31.6775708,28.3221239 29.4293628,31.4472212 C27.2404381,34.4898053 24.335469,36.9376062 21,38.5566504 Z M33.6371681,18.0842522 L21,14.4906504 L8.36283186,18.0842522 L8.36283186,12.2878805 L21,8.69437168 L33.6371681,12.2878805 L33.6371681,18.0842522 Z M2.78761062,18.3613407 L2.78761062,8.07700885 L19.6061947,3.29449115 L19.6061947,6.19258407 L5.57522124,10.1824912 L5.57522124,18.3613407 C5.57522124,23.6834469 7.21164159,28.7713938 10.3078407,33.0751858 C12.7281372,36.4393673 15.9295221,39.1565442 19.6061947,40.9774115 L19.6061947,44.0494513 C9.46895575,39.6290442 2.78761062,29.5461637 2.78761062,18.3613407 Z M39.2123894,18.3613407 C39.2123894,29.5462566 32.5310442,39.6291372 22.3938053,44.0494513 L22.3938053,40.9774115 C26.0704779,39.1565442 29.2719558,36.4393673 31.6922522,33.0751858 C34.7883584,28.7713938 36.4247788,23.6834469 36.4247788,18.3613407 L36.4247788,10.1824912 L22.3938053,6.19258407 L22.3938053,3.29449115 L39.2123894,8.07700885 L39.2123894,18.3613407 Z"
                                            id="Shape"></path>
                                    </g>
                                </g>
                            </g>
                        </g>
                    </svg>