<svg fill="#8A5BF9" id="Capa_1" enable-background="new 0 0 512 512" height="512" viewBox="0 0 512 512" width="512" xmlns="http://www.w3.org/2000/svg"><g><path d="m511.854 494.908-23.304-165.423c-4.979-35.344-31.896-63.501-66.98-70.067l-93.971-17.585c20.76-19.258 33.776-46.755 33.776-77.238v-59.219c0-58.105-47.271-105.376-105.375-105.376s-105.375 47.271-105.375 105.375v59.219c0 30.484 13.016 57.98 33.776 77.238l-93.971 17.586c-35.083 6.566-62.001 34.724-66.98 70.067l-23.303 165.423c-.605 4.301.682 8.653 3.531 11.931s6.979 5.161 11.322 5.161h482c4.343 0 8.473-1.883 11.322-5.161s4.137-7.63 3.532-11.931zm-241.311-118.423-14.543 58.419-14.543-58.42 14.543-58.919zm-33.695-106.516-10.906 44.187-11-44.187zm49.211 44.186-10.906-44.187h21.906zm-30.059-284.155c41.562 0 75.375 33.813 75.375 75.375v12.938c-8.292-2.633-15.226-7.661-20.965-15.2-7.213-9.475-9.651-19.41-9.653-19.418-1.396-6.175-6.517-10.809-12.799-11.582-6.286-.774-12.375 2.481-15.225 8.133-13.485 26.74-40.842 39.739-83.633 39.739h-8.474v-14.609c-.001-41.563 33.812-75.376 75.374-75.376zm-75.375 134.594v-14.609h8.474c41.756 0 73.34-11.127 94.283-33.14.723 1.089 1.487 2.185 2.292 3.282 11.578 15.771 27.191 25.634 45.701 29.035v15.432c0 41.562-33.813 75.375-75.375 75.375s-75.375-33.813-75.375-75.375zm-127.468 169.076c3.181-22.58 20.377-40.569 42.792-44.764l88.661-16.592 52.198 209.686h-204.547zm222.035 148.33 52.198-209.686 88.661 16.592c22.414 4.194 39.611 22.184 42.792 44.764l20.896 148.33z"/></g></svg>