<?xml version="1.0" encoding="UTF-8"?>
<svg viewBox="0 0 48 42" version="1.1" xmlns="http://www.w3.org/2000/svg"
xmlns:xlink="http://www.w3.org/1999/xlink">
<title>online-shopping</title>
<g id="Page-1" stroke="none" stroke-width="1" fill="none" fill-rule="evenodd">
    <g id="Desktop-HD" transform="translate(-281.000000, -1156.000000)">
        <rect id="Background" fill="#F7FAFC" x="0" y="0" width="1440" height="5046"></rect>
        <g id="Services" transform="translate(281.000000, 737.000000)" fill="#000000"
            fill-rule="nonzero">
            <g id="online-shopping" transform="translate(0.000000, 419.000000)">
                <path
                    d="M46.59375,0.01246875 L1.40625,0.01246875 C0.629625,0.01246875 0,0.64209375 0,1.41871875 L0,33.0499688 C0,33.8265938 0.629625,34.4562187 1.40625,34.4562187 L22.59375,34.4562187 L22.59375,39.1749375 L12.703125,39.1749375 C11.9265,39.1749375 11.296875,39.8045625 11.296875,40.5811875 C11.296875,41.3578125 11.9265,41.9874375 12.703125,41.9874375 L35.296875,41.9874375 C36.0735,41.9874375 36.703125,41.3578125 36.703125,40.5811875 C36.703125,39.8045625 36.0735,39.1749375 35.296875,39.1749375 L25.40625,39.1749375 L25.40625,34.4562188 L46.59375,34.4562188 C47.370375,34.4562188 48,33.8265938 48,33.0499688 L48,1.41871875 C48,0.64209375 47.370375,0.01246875 46.59375,0.01246875 Z M45.1875,31.6437187 L2.8125,31.6437187 L2.8125,28.4311875 L45.1875,28.4311875 L45.1875,31.6437187 Z M45.1875,25.6187812 L2.8125,25.6187812 L2.8125,2.82496875 L45.1875,2.82496875 L45.1875,25.6187812 Z"
                    id="Shape"></path>
                <path
                    d="M13.4562187,8.85 L16.123875,8.85 L18.1169062,16.8223125 C18.273375,17.4482812 18.835875,17.8875 19.4811562,17.8875 L28.5186562,17.8875 C29.1639375,17.8875 29.7264375,17.4482812 29.8829063,16.8223125 L31.3890938,10.7972812 C31.4940938,10.3771875 31.3996875,9.9320625 31.13325,9.59071875 C30.8667188,9.249375 30.457875,9.049875 30.0248438,9.049875 L19.0729688,9.049875 L18.586125,7.10259375 C18.4296563,6.476625 17.8671563,6.03740625 17.221875,6.03740625 L13.4562187,6.03740625 C12.6795938,6.03740625 12.0499687,6.66703125 12.0499687,7.44365625 C12.0499687,8.22028125 12.6795938,8.85 13.4562187,8.85 L13.4562187,8.85 Z M28.2239062,11.8624688 L27.42075,15.075 L20.5791562,15.075 L19.776,11.8624688 L28.2239062,11.8624688 Z"
                    id="Shape"></path>
                <circle id="Oval" cx="20.9875312" cy="21.7530938" r="1.40625"></circle>
                <circle id="Oval" cx="27.0124688" cy="21.7530938" r="1.40625"></circle>
            </g>
        </g>
    </g>
</g>
</svg>