<svg id="Capa_1" enable-background="new 0 0 510.518 510.518" height="512" viewBox="0 0 510.518 510.518" width="512" xmlns="http://www.w3.org/2000/svg"><path id="XMLID_1068_" d="m301.231 216.807v-31.101h128.422l41.835-46.236-41.835-46.236h-128.422v-93.234h-91.943v30h-128.423l-41.834 46.236 41.834 46.236h128.423v31.862h-128.423l-41.834 46.236 41.834 46.236h128.423v233.711h-36.305v30h161.223v-30h-32.976v-171.238h128.422l41.835-46.236-41.835-46.236zm115.109-93.574 14.69 16.236-14.69 16.236h-115.109v-32.472zm-322.162-30.761-14.69-16.236 14.69-16.236h115.11v32.472zm0 124.335-14.69-16.236 14.69-16.236h115.11v32.472zm177.053 263.711h-31.943v-450.518h31.943zm145.109-201.239h-115.109v-32.472h115.109l14.69 16.236z"/></svg>