<?xml version="1.0" encoding="UTF-8"?>
<svg viewBox="0 0 45 41" version="1.1" xmlns="http://www.w3.org/2000/svg"
    xmlns:xlink="http://www.w3.org/1999/xlink">
    <g id="Page-1" stroke="none" stroke-width="1" fill="none" fill-rule="evenodd">
        <g id="Desktop-HD" transform="translate(-606.000000, -951.000000)">
            <rect id="Background" fill="#F7FAFC" x="0" y="0" width="1440" height="5046"></rect>
            <g id="Services" transform="translate(281.000000, 737.000000)" fill="#000000"
                fill-rule="nonzero">
                <g id="server" transform="translate(325.000000, 214.000000)">
                    <polygon id="Path"
                        points="5.55908203 5.22975586 8.19580078 5.22975586 8.19580078 7.84661133 5.55908203 7.84661133">
                    </polygon>
                    <polygon id="Path"
                        points="11.308623 5.22975586 13.9453418 5.22975586 13.9453418 7.84661133 11.308623 7.84661133">
                    </polygon>
                    <polygon id="Path"
                        points="5.55908203 15.5422266 8.19580078 15.5422266 8.19580078 18.1591699 5.55908203 18.1591699">
                    </polygon>
                    <polygon id="Path"
                        points="11.308623 15.5422266 13.9453418 15.5422266 13.9453418 18.1591699 11.308623 18.1591699">
                    </polygon>
                    <polygon id="Path"
                        points="5.55908203 25.8546973 8.19580078 25.8546973 8.19580078 28.4715527 5.55908203 28.4715527">
                    </polygon>
                    <polygon id="Path"
                        points="11.308623 25.8546973 13.9453418 25.8546973 13.9453418 28.4715527 11.308623 28.4715527">
                    </polygon>
                    <path
                        d="M37.5741211,6.78577148 L37.5741211,0.0635449219 L0,0.0635449219 L0,33.6377637 L17.4687012,33.6377637 L17.4687012,37.5535547 L0,37.5535547 L0,40.1902734 L37.5781641,40.1902734 L37.5781641,37.5535547 L20.1054199,37.5535547 L20.1054199,33.6377637 L37.5741211,33.6377637 L37.5741211,28.1692969 C39.5586914,27.4882324 41.3295996,26.2435254 42.6355664,24.5906543 C44.1602051,22.6611035 45,20.2439355 45,17.7844922 L45,10.6813477 L37.5741211,6.78577148 Z M2.63671875,2.70026367 L34.9374023,2.70026367 L34.9374023,6.78577148 L28.0933594,10.3760156 L2.63671875,10.3760156 L2.63671875,2.70026367 Z M2.63671875,13.0127344 L27.5114355,13.0127344 L27.5114355,17.7844922 C27.5114355,18.769043 27.6481934,19.746123 27.9073828,20.6885742 L2.63671875,20.6885742 L2.63671875,13.0127344 Z M2.63671875,31.0010449 L2.63671875,23.325293 L29.0159473,23.325293 C29.2725879,23.7651855 29.5584082,24.189082 29.8758691,24.5907422 C31.1818359,26.2435254 32.952832,27.4882324 34.9374023,28.1693848 L34.9374023,31.0011328 L2.63671875,31.0011328 L2.63671875,31.0010449 Z M42.3632812,17.7844922 C42.3632812,21.559834 39.8674512,24.8208398 36.2556738,25.8214746 C32.6438965,24.8208398 30.1481543,21.559834 30.1481543,17.7844922 L30.1481543,12.2756836 L36.2557617,9.07171875 L42.3632812,12.2756836 L42.3632812,17.7844922 Z"
                        id="Shape"></path>
                    <polygon id="Path"
                        points="33.8358691 15.8518652 31.98375 17.7286816 35.5647656 21.2625 40.5338379 16.2935156 38.6694141 14.4290918 35.5524609 17.545957">
                    </polygon>
                </g>
            </g>
        </g>
    </g>
</svg>